<svg width="94" height="137" viewBox="0 0 94 137" fill="none" xmlns="http://www.w3.org/2000/svg">
<path d="M1.8562 135.728C1.24581 135.728 0.840109 135.096 1.09388 134.541L7.96432 119.512C8.12703 119.156 8.48243 118.928 8.8738 118.928H9.34101C9.73238 118.928 10.0878 119.156 10.2505 119.512L17.1139 134.526C17.3709 135.088 16.96 135.728 16.3417 135.728C16.0069 135.728 15.7034 135.531 15.5666 135.226L8.88245 120.289C8.81338 120.134 8.92631 119.96 9.0954 119.96C9.26449 119.96 9.37742 120.134 9.30836 120.289L2.62128 135.232C2.4863 135.534 2.18667 135.728 1.8562 135.728Z" fill="white"/>
<path d="M21.4425 135.728C20.8902 135.728 20.4425 135.28 20.4425 134.728V119.928C20.4425 119.376 20.8902 118.928 21.4425 118.928H27.2825C29.0745 118.928 30.6425 119.288 31.9865 120.008C33.3465 120.712 34.4025 121.696 35.1545 122.96C35.9065 124.224 36.2825 125.68 36.2825 127.328C36.2825 128.976 35.9065 130.432 35.1545 131.696C34.4025 132.96 33.3465 133.952 31.9865 134.672C30.6425 135.376 29.0745 135.728 27.2825 135.728H21.4425ZM22.2185 133.192C22.2185 133.744 22.6662 134.192 23.2185 134.192H27.1865C28.6745 134.192 29.9625 133.904 31.0505 133.328C32.1545 132.736 33.0105 131.928 33.6185 130.904C34.2265 129.864 34.5305 128.672 34.5305 127.328C34.5305 125.968 34.2265 124.776 33.6185 123.752C33.0105 122.728 32.1545 121.928 31.0505 121.352C29.9625 120.76 28.6745 120.464 27.1865 120.464H23.2185C22.6662 120.464 22.2185 120.912 22.2185 121.464V133.192Z" fill="white"/>
<path d="M45.2053 135.728C44.8096 135.728 44.4512 135.495 44.2909 135.133L37.6602 120.16C37.4034 119.58 37.8279 118.928 38.4622 118.928C38.81 118.928 39.1249 119.133 39.265 119.452L45.7821 134.261C45.8821 134.489 45.7156 134.744 45.4672 134.744C45.2184 134.744 45.0519 134.488 45.1527 134.261L51.7295 119.418C51.8614 119.12 52.1564 118.928 52.482 118.928C53.077 118.928 53.4754 119.54 53.2344 120.084L46.57 135.133C46.4098 135.495 46.0513 135.728 45.6557 135.728H45.2053Z" fill="white"/>
<path d="M63.3881 135.872C62.1241 135.872 60.9481 135.664 59.8601 135.248C58.7881 134.816 57.8521 134.216 57.0521 133.448C56.2681 132.664 55.6521 131.76 55.2041 130.736C54.7721 129.696 54.5561 128.56 54.5561 127.328C54.5561 126.096 54.7721 124.968 55.2041 123.944C55.6521 122.904 56.2681 122 57.0521 121.232C57.8521 120.448 58.7881 119.848 59.8601 119.432C60.9321 119 62.1081 118.784 63.3881 118.784C64.6521 118.784 65.8201 119 66.8921 119.432C67.9641 119.848 68.8921 120.44 69.6761 121.208C70.4761 121.976 71.0921 122.88 71.5241 123.92C71.9721 124.96 72.1961 126.096 72.1961 127.328C72.1961 128.56 71.9721 129.696 71.5241 130.736C71.0921 131.776 70.4761 132.68 69.6761 133.448C68.8921 134.216 67.9641 134.816 66.8921 135.248C65.8201 135.664 64.6521 135.872 63.3881 135.872ZM63.3881 134.288C64.3961 134.288 65.3241 134.12 66.1721 133.784C67.0361 133.432 67.7801 132.944 68.4041 132.32C69.0441 131.68 69.5401 130.944 69.8921 130.112C70.2441 129.264 70.4201 128.336 70.4201 127.328C70.4201 126.32 70.2441 125.4 69.8921 124.568C69.5401 123.72 69.0441 122.984 68.4041 122.36C67.7801 121.72 67.0361 121.232 66.1721 120.896C65.3241 120.544 64.3961 120.368 63.3881 120.368C62.3801 120.368 61.4441 120.544 60.5801 120.896C59.7161 121.232 58.9641 121.72 58.3241 122.36C57.7001 122.984 57.2041 123.72 56.8361 124.568C56.4841 125.4 56.3081 126.32 56.3081 127.328C56.3081 128.32 56.4841 129.24 56.8361 130.088C57.2041 130.936 57.7001 131.68 58.3241 132.32C58.9641 132.944 59.7161 133.432 60.5801 133.784C61.4441 134.12 62.3801 134.288 63.3881 134.288Z" fill="white"/>
<path d="M83.5209 135.872C82.2569 135.872 81.0809 135.664 79.9929 135.248C78.9209 134.816 77.9849 134.216 77.1849 133.448C76.4009 132.664 75.7849 131.76 75.3369 130.736C74.9049 129.696 74.6889 128.56 74.6889 127.328C74.6889 126.096 74.9049 124.968 75.3369 123.944C75.7849 122.904 76.4009 122 77.1849 121.232C77.9849 120.448 78.9209 119.848 79.9929 119.432C81.0649 119 82.2409 118.784 83.5209 118.784C84.7849 118.784 85.9529 119 87.0249 119.432C88.0969 119.848 89.0249 120.44 89.8089 121.208C90.6089 121.976 91.2249 122.88 91.6569 123.92C92.1049 124.96 92.3289 126.096 92.3289 127.328C92.3289 128.56 92.1049 129.696 91.6569 130.736C91.2249 131.776 90.6089 132.68 89.8089 133.448C89.0249 134.216 88.0969 134.816 87.0249 135.248C85.9529 135.664 84.7849 135.872 83.5209 135.872ZM83.5209 134.288C84.5289 134.288 85.4569 134.12 86.3049 133.784C87.1689 133.432 87.9129 132.944 88.5369 132.32C89.1769 131.68 89.6729 130.944 90.0249 130.112C90.3769 129.264 90.5529 128.336 90.5529 127.328C90.5529 126.32 90.3769 125.4 90.0249 124.568C89.6729 123.72 89.1769 122.984 88.5369 122.36C87.9129 121.72 87.1689 121.232 86.3049 120.896C85.4569 120.544 84.5289 120.368 83.5209 120.368C82.5129 120.368 81.5769 120.544 80.7129 120.896C79.8489 121.232 79.0969 121.72 78.4569 122.36C77.8329 122.984 77.3369 123.72 76.9689 124.568C76.6169 125.4 76.4409 126.32 76.4409 127.328C76.4409 128.32 76.6169 129.24 76.9689 130.088C77.3369 130.936 77.8329 131.68 78.4569 132.32C79.0969 132.944 79.8489 133.432 80.7129 133.784C81.5769 134.12 82.5129 134.288 83.5209 134.288Z" fill="white"/>
<path fill-rule="evenodd" clip-rule="evenodd" d="M4.11828 28.8217L41.1183 1.91264C44.6248 -0.637545 49.3752 -0.637548 52.8817 1.91264L89.8817 28.8217C92.4692 30.7035 94 33.7097 94 36.9091V66.361C94 69.5603 92.4692 72.5665 89.8817 74.4483L52.8817 101.357C49.3752 103.908 44.6248 103.908 41.1183 101.357L4.11828 74.4483C1.53084 72.5666 0 69.5603 0 66.361V36.9091C0 33.7097 1.53084 30.7035 4.11828 28.8217ZM42.4831 32.1563C42.9285 31.2313 43.9234 30.635 45.0214 30.635H47.9003C48.9967 30.635 49.9905 31.2296 50.4368 32.1525L68.7563 70.0335C69.575 71.7263 68.2307 73.635 66.2197 73.635H66.0802C64.9836 73.635 63.9898 73.0404 63.5435 72.1172L46.559 36.9865L29.815 72.1052C29.3718 73.0348 28.3743 73.635 27.2725 73.635H26.7802C24.7712 73.635 23.4269 71.7297 24.2419 70.0372L42.4831 32.1563Z" fill="white"/>
</svg>
