<?xml version="1.0" standalone="no"?>
<!DOCTYPE svg PUBLIC "-//W3C//DTD SVG 20010904//EN"
 "http://www.w3.org/TR/2001/REC-SVG-20010904/DTD/svg10.dtd">
<svg version="1.0" xmlns="http://www.w3.org/2000/svg"
 width="832.000000pt" height="832.000000pt" viewBox="0 0 832.000000 832.000000"
 preserveAspectRatio="xMidYMid meet">
<metadata>
Created by potrace 1.14, written by Peter Selinger 2001-2017
</metadata>
<g transform="translate(0.000000,832.000000) scale(0.100000,-0.100000)"
fill="#000000" stroke="none">
<path d="M4058 8315 c-1 -2 -21 -6 -43 -9 -85 -13 -210 -63 -286 -114 -79 -53
-299 -212 -317 -229 -7 -7 -17 -13 -21 -13 -4 0 -16 -8 -27 -18 -11 -10 -33
-27 -49 -37 -17 -11 -37 -25 -45 -33 -8 -7 -45 -34 -81 -60 -37 -26 -77 -55
-90 -65 -13 -9 -69 -49 -124 -89 -55 -40 -101 -76 -103 -80 -2 -4 -10 -8 -17
-8 -8 0 -18 -6 -22 -13 -4 -6 -28 -26 -53 -42 -25 -16 -47 -32 -50 -35 -3 -3
-88 -66 -190 -140 -102 -74 -247 -179 -323 -234 -76 -56 -151 -110 -167 -121
-44 -31 -201 -146 -235 -172 -35 -27 -36 -28 -100 -73 -28 -19 -54 -38 -60
-43 -5 -4 -125 -91 -265 -193 -140 -101 -262 -190 -270 -197 -9 -6 -36 -25
-60 -42 -25 -16 -49 -36 -53 -42 -4 -7 -14 -13 -22 -13 -7 0 -15 -4 -17 -8 -1
-4 -52 -44 -113 -87 -112 -80 -187 -138 -215 -165 -44 -45 -108 -128 -103
-134 3 -3 2 -6 -4 -6 -24 0 -106 -200 -117 -282 -1 -10 -5 -21 -9 -24 -4 -4
-7 -583 -7 -1288 0 -1041 3 -1292 14 -1338 7 -32 12 -58 10 -58 -1 0 12 -38
30 -84 60 -152 172 -293 302 -381 32 -22 66 -48 75 -57 9 -10 20 -18 25 -18 8
0 32 -18 109 -78 6 -4 42 -30 80 -57 80 -56 192 -139 217 -160 9 -7 25 -18 36
-24 11 -6 26 -17 34 -24 7 -7 36 -28 63 -47 28 -19 55 -38 60 -43 6 -4 66 -49
135 -98 69 -50 126 -95 128 -100 2 -5 9 -9 15 -9 7 0 23 -9 37 -20 14 -12 66
-50 115 -86 50 -36 98 -72 108 -80 9 -7 21 -14 26 -14 5 0 11 -4 13 -8 2 -4
62 -50 133 -101 174 -125 239 -175 243 -183 2 -5 10 -8 18 -8 8 0 14 -4 14
-10 0 -5 7 -10 15 -10 8 0 15 -4 15 -8 0 -4 19 -20 43 -35 23 -15 55 -38 71
-52 16 -14 32 -25 36 -25 4 0 18 -9 31 -21 13 -12 49 -39 79 -60 30 -21 89
-64 130 -94 41 -31 91 -66 110 -79 19 -13 45 -33 57 -45 12 -12 25 -21 29 -21
4 0 30 -17 58 -38 112 -84 283 -209 324 -236 23 -16 42 -32 42 -36 0 -4 11
-12 25 -18 14 -7 31 -16 38 -22 7 -6 30 -24 52 -40 22 -16 45 -33 50 -37 47
-35 105 -73 111 -73 4 0 15 -7 24 -15 10 -9 27 -18 40 -20 12 -2 27 -8 34 -14
13 -10 105 -40 156 -49 45 -9 254 -9 300 -1 82 15 278 97 288 121 2 5 10 8 17
8 7 0 15 4 17 8 2 4 61 50 132 101 71 51 136 99 143 107 8 8 18 14 23 14 4 0
33 20 63 45 31 25 60 45 66 45 6 0 11 5 11 10 0 6 6 10 14 10 8 0 16 4 18 9 2
4 154 117 338 251 184 134 394 286 466 339 72 53 166 121 209 151 42 30 82 60
88 65 7 6 59 44 117 84 58 41 110 80 116 88 6 7 14 13 17 13 3 0 37 23 74 50
90 67 104 77 182 132 36 26 73 53 81 62 8 8 27 20 43 27 15 7 27 16 27 20 0 4
17 18 38 30 20 13 42 28 48 34 6 5 37 28 68 50 32 22 90 65 131 95 70 52 152
111 354 257 107 77 142 106 198 163 52 52 127 162 148 216 9 22 20 47 25 57 6
9 19 54 30 100 19 79 19 123 17 1372 -2 710 -6 1306 -11 1325 -4 19 -12 43
-17 52 -5 9 -9 21 -8 25 2 10 -24 74 -53 128 -11 22 -26 50 -32 62 -6 13 -14
23 -18 23 -5 0 -8 5 -8 10 0 17 -87 110 -150 160 -17 14 -43 35 -57 48 -14 12
-29 22 -34 22 -4 0 -14 6 -21 13 -7 7 -26 20 -41 30 -16 10 -36 25 -45 32 -9
8 -91 68 -182 134 -91 66 -170 124 -175 129 -6 5 -24 17 -40 28 -17 10 -34 22
-40 27 -5 4 -32 24 -60 45 -27 20 -51 40 -53 45 -2 4 -10 7 -17 7 -7 0 -15 4
-17 8 -1 5 -25 24 -53 43 -27 19 -84 60 -126 92 -42 31 -79 57 -82 57 -4 0
-21 12 -37 27 -16 14 -41 33 -54 42 -13 9 -61 43 -106 76 -45 33 -89 65 -99
70 -9 6 -18 12 -21 15 -3 3 -23 18 -45 35 -22 16 -46 35 -53 42 -7 7 -17 13
-21 13 -4 0 -17 8 -29 18 -11 9 -30 24 -42 32 -12 8 -28 20 -34 25 -6 6 -24
18 -39 28 -16 10 -36 25 -45 32 -17 14 -153 114 -328 240 -54 39 -103 76 -110
83 -7 6 -15 12 -18 12 -5 0 -123 86 -159 115 -9 8 -22 15 -27 15 -6 0 -10 4
-10 8 0 5 -12 15 -27 23 -16 8 -37 22 -48 32 -11 10 -69 54 -130 97 -60 44
-114 83 -120 87 -5 5 -32 24 -60 43 -27 19 -56 40 -63 47 -8 7 -23 18 -34 24
-11 6 -27 17 -36 24 -46 39 -154 115 -162 115 -4 0 -10 4 -12 9 -4 12 -145 85
-193 100 -82 25 -173 38 -262 39 -50 0 -93 -1 -95 -3z m274 -2468 c20 -11 49
-30 63 -44 23 -24 115 -195 115 -216 0 -5 9 -22 21 -38 11 -16 17 -29 13 -29
-4 0 1 -9 12 -21 10 -12 17 -22 15 -23 -2 0 24 -59 59 -131 34 -71 98 -204
142 -295 44 -91 97 -201 119 -244 21 -44 39 -85 39 -93 0 -7 3 -13 8 -13 8 0
32 -49 32 -67 0 -7 5 -13 10 -13 6 0 10 -9 10 -20 0 -11 5 -20 10 -20 6 0 9
-3 8 -7 -1 -5 26 -66 61 -138 35 -71 104 -213 153 -315 50 -102 115 -237 146
-300 31 -63 56 -117 57 -120 1 -5 105 -220 219 -453 37 -73 66 -137 66 -141 0
-4 10 -22 22 -39 13 -18 22 -33 20 -35 -1 -1 16 -40 38 -87 22 -47 41 -88 41
-92 1 -5 9 -19 18 -33 56 -81 86 -226 54 -258 -7 -7 -13 -20 -13 -27 0 -21
-76 -81 -119 -93 -88 -27 -183 -6 -248 56 -18 16 -33 33 -33 36 0 3 -36 78
-79 166 -44 88 -77 160 -74 160 2 0 -5 13 -16 29 -12 16 -21 32 -21 36 0 3
-33 75 -74 158 -82 169 -189 391 -291 602 -115 239 -205 426 -256 529 -27 55
-49 105 -49 112 0 7 -3 14 -7 16 -5 2 -24 37 -43 78 -19 41 -38 77 -42 78 -5
2 -8 8 -8 14 0 6 -22 56 -49 112 -27 55 -86 178 -131 271 -45 94 -114 237
-154 318 l-72 149 -41 -89 c-23 -48 -76 -160 -118 -248 -43 -88 -92 -191 -110
-230 -18 -38 -64 -135 -102 -215 -39 -80 -82 -170 -96 -200 -14 -30 -58 -122
-98 -205 -40 -82 -73 -152 -74 -155 -2 -7 -48 -104 -133 -280 -38 -80 -90
-188 -115 -240 -24 -52 -71 -149 -102 -215 -32 -66 -80 -167 -107 -225 -28
-58 -71 -148 -96 -200 -25 -52 -47 -97 -47 -100 -1 -3 -26 -57 -57 -120 -78
-163 -119 -198 -240 -207 -83 -7 -143 9 -192 49 -47 38 -68 80 -72 140 -3 54
0 62 100 271 36 75 66 141 66 145 0 5 6 14 12 20 7 7 13 16 14 20 0 4 16 39
34 77 19 39 33 73 32 78 -1 4 2 7 8 7 5 0 10 4 10 9 0 5 29 70 65 145 36 75
65 140 65 146 0 5 5 10 10 10 6 0 10 4 10 9 0 9 64 145 169 361 22 47 41 91
41 97 0 7 3 13 8 13 4 0 13 15 21 33 8 17 52 110 98 205 46 96 83 176 83 178
0 2 11 22 24 43 14 21 22 41 19 45 -3 3 0 13 7 21 11 13 60 107 65 125 1 3 22
49 48 102 26 54 47 102 47 108 0 5 5 10 10 10 6 0 10 4 10 9 0 9 73 164 188
401 20 41 36 78 34 83 -1 4 2 7 8 7 5 0 10 4 10 10 0 9 113 253 131 280 5 8
13 25 19 38 14 32 60 99 60 87 0 -6 6 -3 13 5 30 38 85 48 262 46 143 -1 176
-4 207 -19z"/>
</g>
</svg>
